<?xml version="1.0" encoding="UTF-8"?>
<svg id="Livello_1" xmlns="http://www.w3.org/2000/svg" version="1.1" viewBox="0 0 32 32">
  <!-- Generator: Adobe Illustrator 29.0.0, SVG Export Plug-In . SVG Version: 2.1.0 Build 186)  -->
  <defs>
    <style>
      .st0 {
        fill: none;
      }

      .st1 {
        fill: #fff;
      }
    </style>
  </defs>
  <g id="Layer_2">
    <path class="st1" d="M13,26c-.3,0-.5-.1-.7-.3L3.3,16.7c-.4-.4-.4-1,0-1.4,0,0,0,0,0,0L12.3,6.3c.4-.4,1-.4,1.4,0s.4,1,0,1.4L5.4,16l8.3,8.3c.4.4.4,1,0,1.4,0,0,0,0,0,0-.2.2-.4.3-.7.3Z"/>
    <path class="st1" d="M28,17H4c-.6,0-1-.4-1-1s.4-1,1-1h24c.6,0,1,.4,1,1s-.4,1-1,1Z"/>
  </g>
  <g id="frame">
    <rect class="st0" y="0" width="32" height="32"/>
  </g>
</svg>